<?xml version="1.0" standalone="no"?><!DOCTYPE svg PUBLIC "-//W3C//DTD SVG 1.1//EN" "http://www.w3.org/Graphics/SVG/1.1/DTD/svg11.dtd"><svg t="1521880474779" class="icon" style="" viewBox="0 0 1024 1024" version="1.1" xmlns="http://www.w3.org/2000/svg" p-id="899" xmlns:xlink="http://www.w3.org/1999/xlink" width="200" height="200"><defs><style type="text/css"></style></defs><path d="M0 0h1024v1024H0z" fill="#49BFDC" p-id="900"></path><path d="M1024 537.216V1024H693.178182L256.581818 747.636364h518.632727L738.909091 358.784 505.134545 301.149091l35.956364-83.933091z" fill="#3FB2CE" p-id="901"></path><path d="M186.577455 798.917818h652.567272v23.866182h-652.567272v-23.866182z m155.194181-81.152h-78.894545V482.816h-25.122909v-25.832727H367.476364v27.810909h-25.704728v232.971636z m235.473455-234.379636h-24.832v234.077091h-79.36V482.769455h-25.774546v-24.250182h129.966546v24.866909z m208.174545-24.983273v24.773818h-24.669091v234.356364h-79.371636V482.676364h-24.994909v-24.261819l129.035636-0.011636z m27.310546 311.482182H212.538182v-24.913455h600.192v24.913455z m20.317091-366.301091a58.635636 58.635636 0 0 0-5.108364-4.049455c-52.177455-37.445818-104.413091-74.786909-156.497454-112.337454-53.178182-38.330182-106.251636-76.858182-159.383273-115.316364h-1.617455c-1.245091 1.314909-2.338909 2.897455-3.805091 3.956364-73.984 53.713455-147.968 107.426909-222.033454 161.024-29.986909 21.690182-60.194909 43.077818-90.274909 64.605091-8.762182 6.237091-12.148364 14.033455-8.576 20.654545 3.618909 6.725818 9.681455 8.517818 17.128727 8.494546 104.913455-0.151273 209.780364-0.093091 314.682182-0.093091 101.608727 0 203.240727-0.058182 304.861091 0.093091 7.714909 0.023273 13.533091-2.478545 16.244363-9.576728 2.664727-6.900364-0.337455-12.753455-5.620363-17.454545m-321.396364-32.162909a45.533091 45.533091 0 0 1-45.416727-45.882182 45.533091 45.533091 0 0 1 45.730909-45.533091c25.053091 0.104727 45.742545 20.898909 45.649454 45.905455-0.081455 25.029818-20.782545 45.544727-45.963636 45.509818" fill="#FFFFFF" p-id="902"></path></svg>